# xmcd
#
# Track frame offsets:
#	150
#	22234
#	40184
#	59045
#	75135
#	92074
#	108566
#	117766
#	135800
#	151312
#	165720
#	181697
#	196183
#	216844
#	241864
#	258029
#	280516
#	295882
#	313965
#	334276
#
# Disc length: 4725 seconds
#
# Revision: 0
# Processed by: cddbd v1.5.2PL0 Copyright (c) Steve Scherf et al.
# Submitted via: dBpowerAMP V4.0
#
DISCID=0f127314
DTITLE=Various Artist - various artists
DYEAR=1900
DGENRE=Country
TTITLE0=thunderstruck
TTITLE1=chatahochie
TTITLE2=keep holding on
TTITLE3=nobodys home
TTITLE4=shape of my heart
TTITLE5=the natural
TTITLE6=blur
TTITLE7=ticks
TTITLE8=fishing in the dark
TTITLE9=shakin
TTITLE10=take me home tonight
TTITLE11=guys like me
TTITLE12=american pie
TTITLE13=enter sandman
TTITLE14=sweet caroline
TTITLE15=smells like teen spirit
TTITLE16=fishing in the dark
TTITLE17=cumbersome
TTITLE18=semi charmed life
TTITLE19=the freshman
EXTD=various artists
EXTT0=
EXTT1=
EXTT2=
EXTT3=
EXTT4=
EXTT5=
EXTT6=
EXTT7=
EXTT8=
EXTT9=
EXTT10=
EXTT11=
EXTT12=
EXTT13=
EXTT14=
EXTT15=
EXTT16=
EXTT17=
EXTT18=
EXTT19=
PLAYORDER=
